Coordinates
version=1
nRows=58
nColumns=11
inDegrees=yes

Units are S.I. units (second, meters, Newtons, ...)
If the header above contains a line with 'inDegrees', this indicates whether rotational values are in degrees (yes) or radians (no).

endheader
time	pelvis_tilt	pelvis_tx	pelvis_ty	hip_flexion_l	hip_flexion_r	knee_angle_l	knee_angle_r	ankle_angle_l	ankle_angle_r	lumbar_extension
      2.21000000	     -2.34253616	     -0.85502864	      0.88756988	     37.38784556	     -5.10325249	    -21.42382058	    -23.12985583	     -5.59462111	      6.42814519	     -3.02684709
      2.22000000	     -2.26343321	     -0.84351972	      0.88616061	     37.20615097	     -5.94929575	    -20.37862372	    -23.14794996	     -5.52625447	      6.21094236	     -3.04519674
      2.23000000	     -2.17244780	     -0.83182724	      0.88478642	     37.06149581	     -6.85602968	    -19.83005564	    -23.07269833	     -5.50161752	      5.75371976	     -3.11364204
      2.24000000	     -2.13905841	     -0.81992787	      0.88330052	     37.03428844	     -7.66523221	    -19.81186579	    -23.07624909	     -5.64345068	      5.31496648	     -3.05692665
      2.25000000	     -2.12830963	     -0.80771469	      0.88180411	     37.04016866	     -8.48116403	    -20.26481338	    -23.00793434	     -5.97403223	      4.89998428	     -2.97814101
      2.26000000	     -2.32603998	     -0.79564853	      0.88025792	     37.39647410	     -8.99284994	    -21.44080474	    -23.03788253	     -8.21542981	      4.08519727	     -2.64556834
      2.27000000	     -2.71305753	     -0.78372714	      0.87871302	     38.24781825	     -9.24545568	    -23.85504836	    -23.17123515	     -9.42375679	      3.14477923	     -2.13792112
      2.28000000	     -2.99490781	     -0.77149534	      0.87753080	     39.25526704	     -9.62605767	    -26.97427462	    -23.22394666	     -8.26835707	      2.43506076	     -1.72506765
      2.29000000	     -3.31566133	     -0.75917737	      0.87621127	     40.41237313	     -9.99382099	    -30.00350393	    -23.22465975	     -5.73642619	      0.99196449	     -1.24510384
      2.30000000	     -3.54746651	     -0.74668377	      0.87519334	     41.22520698	    -10.42509731	    -32.25739063	    -23.28982510	     -4.72256589	     -0.05959825	     -0.84051037
      2.31000000	     -3.71917696	     -0.73411910	      0.87442933	     41.61535705	    -10.88918479	    -33.79414133	    -23.33450985	     -4.30176211	     -1.38588296	     -0.50023395
      2.32000000	     -3.96666412	     -0.72151017	      0.87384027	     41.86483322	    -11.20205032	    -35.03513574	    -23.45162154	     -3.46572776	     -2.95015416	     -0.06654538
      2.33000000	     -4.13954434	     -0.70874394	      0.87366386	     41.89342661	    -11.54759240	    -36.29402738	    -23.65228959	     -2.48271093	     -4.53002575	      0.30761725
      2.34000000	     -4.27556369	     -0.69580435	      0.87385394	     41.74255758	    -11.83279372	    -37.39096044	    -23.91091498	     -1.47809131	     -6.61191400	      0.64713329
      2.35000000	     -4.54159600	     -0.68298228	      0.87422310	     41.65028668	    -11.77613554	    -38.31930368	    -24.46176945	     -0.54331084	     -8.75363055	      1.13899736
      2.36000000	     -4.78725711	     -0.67036680	      0.87502022	     41.40528987	    -11.48794794	    -38.97285239	    -25.37805690	      0.32228845	    -10.94293012	      1.57446195
      2.37000000	     -5.09190060	     -0.65786535	      0.87597766	     41.15977447	    -10.89662445	    -39.53631977	    -26.63749920	      1.27555099	    -13.18478049	      2.04878067
      2.38000000	     -5.28292314	     -0.64557966	      0.87735779	     40.70657177	    -10.25208263	    -39.91998727	    -28.01019650	      2.14543572	    -15.45838049	      2.36084449
      2.39000000	     -5.45311638	     -0.63367238	      0.87892170	     40.16974950	     -9.37882105	    -40.19579849	    -29.66349321	      3.06527209	    -17.76217724	      2.59419135
      2.40000000	     -5.55707584	     -0.62229741	      0.88076665	     39.51261094	     -8.36530568	    -40.34560118	    -31.62188120	      4.00067768	    -19.98804623	      2.66724454
      2.41000000	     -5.60919786	     -0.61142871	      0.88289953	     38.76111972	     -7.18389084	    -40.35713529	    -33.58360256	      4.77166693	    -22.37185253	      2.61352754
      2.42000000	     -5.61089218	     -0.60049499	      0.88518318	     37.89397863	     -5.99357038	    -40.27397280	    -35.72134368	      5.64232545	    -23.52067076	      2.52684655
      2.43000000	     -5.64178077	     -0.58976709	      0.88747825	     37.03444248	     -4.64007716	    -40.13064756	    -38.04018615	      6.36572348	    -23.16478386	      2.47298003
      2.44000000	     -5.59456274	     -0.57918789	      0.89002116	     36.02229063	     -3.26498260	    -39.80501968	    -40.09591572	      7.03451924	    -22.35065564	      2.31753206
      2.45000000	     -5.54504080	     -0.56872634	      0.89268151	     34.95513501	     -1.84146008	    -39.36297670	    -41.86713969	      7.60881061	    -21.47411457	      2.16421297
      2.46000000	     -5.53302300	     -0.55839762	      0.89549283	     33.85698271	     -0.37624717	    -38.78037417	    -43.45066937	      8.07821258	    -20.21011000	      2.06282788
      2.47000000	     -5.52887062	     -0.54810631	      0.89838272	     32.71014420	      1.14282315	    -38.07334325	    -44.81517821	      8.49784196	    -18.82361144	      1.99658611
      2.48000000	     -5.54398785	     -0.53792273	      0.90136701	     31.53543680	      2.69499010	    -37.25954995	    -45.91117738	      8.71080680	    -17.48464918	      1.94585373
      2.49000000	     -5.60019786	     -0.52789072	      0.90438909	     30.36365213	      4.32607465	    -36.34763022	    -46.80607044	      9.03990547	    -16.16311354	      1.97271232
      2.50000000	     -5.64075280	     -0.51788450	      0.90738641	     29.14721282	      5.95366993	    -35.36663214	    -47.54158549	      9.21638275	    -14.91607018	      1.98149660
      2.51000000	     -5.72303817	     -0.50810111	      0.91027777	     27.92794035	      7.67132285	    -34.25287998	    -48.17498194	      9.30432486	    -13.68750681	      2.02894217
      2.52000000	     -5.75952509	     -0.49840733	      0.91300213	     26.73336176	      9.39360426	    -33.26011149	    -48.73014039	      9.49195353	    -12.61731056	      2.02085814
      2.53000000	     -5.80005832	     -0.48886357	      0.91549256	     25.53336372	     11.14589032	    -32.23120588	    -49.21635259	      9.65419819	    -11.76002709	      1.99903718
      2.54000000	     -5.81539344	     -0.47954902	      0.91772363	     24.36778354	     12.94719475	    -31.26840545	    -49.70416345	      9.78361877	    -10.99940677	      1.92650981
      2.55000000	     -5.80831635	     -0.47054201	      0.91961707	     23.22231432	     14.76968615	    -30.34625859	    -50.16379390	      9.95228085	    -10.16763671	      1.76413057
      2.56000000	     -5.75733942	     -0.46134378	      0.92111955	     22.07250027	     16.53019263	    -29.53296935	    -50.54565233	     10.24044582	     -9.59119623	      1.58604036
      2.57000000	     -5.67821697	     -0.45226273	      0.92223931	     20.97364048	     18.26931840	    -28.85485362	    -50.86231180	     10.56868649	     -9.08498002	      1.35739156
      2.58000000	     -5.53491632	     -0.44332273	      0.92304034	     19.87004655	     19.90805621	    -28.28339409	    -51.02560818	     10.94068046	     -8.64991807	      1.03166727
      2.59000000	     -5.34253311	     -0.43435811	      0.92351273	     18.80039572	     21.47779354	    -27.86433062	    -51.09098154	     11.40183429	     -8.36858018	      0.64800472
      2.60000000	     -5.08880860	     -0.42550257	      0.92371859	     17.72083082	     22.92436912	    -27.54003288	    -51.06204233	     11.88745618	     -7.58864632	      0.17761820
      2.61000000	     -4.77875468	     -0.41642106	      0.92361459	     16.65270284	     24.22179019	    -27.37656547	    -50.82083004	     12.43443957	     -7.41927240	     -0.32210520
      2.62000000	     -4.42103161	     -0.40738415	      0.92327232	     15.59003865	     25.39427340	    -27.31220880	    -50.37061527	     12.98193665	     -7.20487227	     -0.89280156
      2.63000000	     -3.92920411	     -0.39813177	      0.92282684	     14.43183094	     26.29919747	    -27.36406662	    -49.68840786	     13.58231908	     -7.00368987	     -1.57596902
      2.64000000	     -3.36024696	     -0.38872439	      0.92216550	     13.24976953	     27.00417546	    -27.54891754	    -48.77639976	     14.22152848	     -6.78278341	     -2.32532870
      2.65000000	     -2.69992710	     -0.37919110	      0.92135632	     12.01937175	     27.48106559	    -27.83941271	    -47.62248792	     14.98750883	     -6.56495379	     -3.16787089
      2.66000000	     -1.96044961	     -0.36939608	      0.92042275	     10.71487212	     27.70932557	    -28.20490012	    -46.18447256	     15.83866857	     -6.39992776	     -4.05646245
      2.67000000	     -1.16050580	     -0.35946409	      0.91939924	      9.33217195	     27.71826930	    -28.57013633	    -44.49234847	     16.66799807	     -6.21250990	     -4.99062685
      2.68000000	     -0.31701189	     -0.34926034	      0.91831155	      7.77122410	     27.49720836	    -28.73656289	    -42.51066754	     17.51861117	     -6.23016115	     -5.93610759
      2.69000000	      0.57578680	     -0.33875671	      0.91711319	      6.21196392	     27.05682504	    -29.05026421	    -40.23433041	     18.40096975	     -6.23612527	     -6.88632316
      2.70000000	      1.43477071	     -0.32805887	      0.91570316	      4.69150420	     26.53267788	    -29.39931578	    -37.83359868	     19.29156024	     -6.32166769	     -7.76464048
      2.71000000	      2.30344831	     -0.31715388	      0.91423417	      3.11878547	     25.83212927	    -29.69627123	    -35.19557708	     20.14335635	     -6.41137053	     -8.62661040
      2.72000000	      3.06085921	     -0.30609451	      0.91247958	      1.65825094	     25.16669688	    -30.00990355	    -32.49386013	     20.99560520	     -6.38549144	     -9.33089362
      2.73000000	      3.73723438	     -0.29487509	      0.91059729	      0.26132885	     24.50315549	    -30.29497999	    -29.79359610	     21.77360330	     -6.24787015	     -9.92144741
      2.74000000	      4.34839319	     -0.28339184	      0.90857237	     -1.09467540	     23.81010766	    -30.56970324	    -27.08647646	     22.50476091	     -6.07563871	    -10.40810715
      2.75000000	      4.79763264	     -0.27187766	      0.90649168	     -2.28914527	     23.28899087	    -30.80761052	    -24.56287625	     23.14118836	     -5.93814103	    -10.71318262
      2.76000000	      5.15308488	     -0.26019675	      0.90432020	     -3.39839722	     22.83661953	    -31.04265035	    -22.29131798	     23.71286474	     -5.73491238	    -10.88954514
      2.77000000	      5.36656926	     -0.24842181	      0.90210092	     -4.31897190	     22.56910262	    -31.34238099	    -20.38722427	     24.07831104	     -5.60797914	    -10.89444175
      2.78000000	      5.51293274	     -0.23656530	      0.90002901	     -5.15129809	     22.34179616	    -31.67216542	    -18.75977929	     24.32617551	     -5.60622497	    -10.83163201
